<?xml version="1.0" encoding="utf-8"?>
<!-- Generator: Adobe Illustrator 15.1.1, SVG Export Plug-In . SVG Version: 6.00 Build 0)  -->
<!DOCTYPE svg PUBLIC "-//W3C//DTD SVG 1.1//EN" "http://www.w3.org/Graphics/SVG/1.1/DTD/svg11.dtd">
<svg version="1.1" id="Ebene_1" xmlns="http://www.w3.org/2000/svg" xmlns:xlink="http://www.w3.org/1999/xlink" x="0px" y="0px"
	 width="104px" height="76px" viewBox="0 0 104 76" enable-background="new 0 0 104 76" xml:space="preserve">
<g id="Ebene_1_1_">
	<polygon fill="none" points="38,56.645 38,19.355 19.355,38 	"/>
	<polygon fill="#24435D" points="19.355,38 38,19.355 38,2 2,38 38,74 38,56.645 	"/>
	<polygon fill="#46B17B" points="56.645,38 38,56.645 38,74 74,38 38,2 38,19.355 	"/>
	<g>
		<polygon fill="#46B17B" points="84.645,38 66,56.645 66,74 102,38 66,2 66,19.355 		"/>
		<path fill="#FFFFFF" d="M65.5,75.207v-18.77L83.938,38L65.5,19.563V0.793L102.707,38L65.5,75.207z M66.5,56.852v15.941L101.293,38
			L66.5,3.207v15.941L85.352,38L66.5,56.852z"/>
	</g>
	<path fill="#FFFFFF" d="M38,74.707L1.293,38L38,1.293L74.707,38L38,74.707z M2.707,38L38,73.293L73.293,38L38,2.707L2.707,38z"/>
	<path fill="#FFFFFF" d="M38,57.352L18.648,38L38,18.648L57.352,38L38,57.352z M20.063,38L38,55.938L55.938,38L38,20.063L20.063,38z
		"/>
</g>
</svg>
